<svg width="202" height="58" viewBox="0 0 202 58" fill="none" xmlns="http://www.w3.org/2000/svg">
<g id="Logo" clip-path="url(#clip0_519_9557)">
<g id="g10">
<g id="g12">
<path id="path14" d="M51.4004 9.23807C51.2724 8.07157 50.2234 7.22957 49.0569 7.3575C47.8914 7.48513 47.0496 8.53425 47.1767 9.7005C47.3044 10.8665 48.3532 11.7078 49.5193 11.5811C50.6858 11.4532 51.5276 10.4039 51.4004 9.23807Z" fill="#3792AD"/>
<path id="path16" d="M54.9519 1.90753C55.2151 1.33897 54.968 0.665591 54.3999 0.401903C53.8318 0.138278 53.1575 0.385092 52.8938 0.952967C52.6299 1.52159 52.8772 2.1954 53.4458 2.45953C54.0134 2.72247 54.6882 2.4754 54.9519 1.90753Z" fill="#3792AD"/>
<path id="path18" d="M24.292 8.01472C24.1533 6.74641 25.0701 5.60503 26.3379 5.46616C27.6062 5.32772 28.7476 6.24372 28.8863 7.51228C29.0251 8.78059 28.1091 9.92172 26.8408 10.0608C25.5725 10.1998 24.4311 9.28303 24.292 8.01472Z" fill="#8ACA25"/>
<path id="path20" d="M24.8001 4.53106C24.7415 4.00006 24.2654 3.61775 23.7354 3.67631C23.2053 3.73468 22.8216 4.211 22.8794 4.74075C22.938 5.272 23.4146 5.65506 23.9453 5.59718C24.4761 5.53862 24.8584 5.06156 24.8001 4.53106Z" fill="#3792AD"/>
<path id="path22" d="M47.2949 13.7764C47.1858 12.7752 46.2849 12.0518 45.2832 12.1612C44.2823 12.2708 43.5588 13.1717 43.6682 14.1736C43.7781 15.1749 44.6784 15.8977 45.6807 15.7876C46.6814 15.6782 47.4048 14.7779 47.2949 13.7764Z" fill="#3792AD"/>
<path id="path24" d="M42.4084 16.1505C42.7759 15.3587 42.4316 14.4185 41.6399 14.0511C40.8472 13.6837 39.9077 14.0279 39.5403 14.8204C39.1731 15.6119 39.5171 16.5523 40.3088 16.9198C41.1018 17.2872 42.0417 16.943 42.4084 16.1505Z" fill="#3792AD"/>
<path id="path26" d="M51.7874 12.1531C51.7368 11.6861 52.0742 11.2657 52.5417 11.2142C53.0092 11.1629 53.4292 11.5007 53.48 11.9686C53.5312 12.4349 53.1943 12.855 52.7261 12.9068C52.2592 12.9576 51.8394 12.6202 51.7874 12.1531Z" fill="#8ACA25"/>
<path id="path28" d="M44.8486 6.59306C44.7974 6.126 45.1347 5.70513 45.6011 5.65388C46.0693 5.60281 46.4892 5.94075 46.541 6.4085C46.5925 6.87481 46.2541 7.29544 45.7869 7.34675C45.3191 7.3975 44.8994 7.06038 44.8486 6.59306Z" fill="#8ACA25"/>
<path id="path30" d="M41.5821 4.6512C41.5093 3.98345 41.9914 3.38238 42.6587 3.30913C43.3269 3.23638 43.9278 3.71932 44.0003 4.38626C44.0735 5.05451 43.5921 5.65482 42.9236 5.72732C42.2559 5.80057 41.6553 5.31845 41.5821 4.6512Z" fill="#8ACA25"/>
<path id="path32" d="M38.1888 3.39877C37.6584 2.70371 37.7915 1.71102 38.4854 1.18246C39.1794 0.65146 40.1711 0.784273 40.7009 1.47784C41.2307 2.17246 41.0984 3.16483 40.4043 3.69465C39.7117 4.22446 38.7185 4.0914 38.1888 3.39877Z" fill="#8ACA25"/>
<path id="path34" d="M33.3244 1.81353C33.2263 0.916094 33.8738 0.10822 34.772 0.0100949C35.6699 -0.0880301 36.4771 0.559907 36.5757 1.45785C36.6738 2.35528 36.0264 3.16316 35.1277 3.26035C34.23 3.35897 33.4226 2.71078 33.3244 1.81353Z" fill="#8ACA25"/>
<path id="path36" d="M30.7713 5.346L30.8726 5.31037C31.905 4.91556 32.4509 3.77418 32.0879 2.76468C31.7368 1.79131 30.6682 1.2835 29.6543 1.61062L29.5571 1.64481C28.5244 2.03887 27.9776 3.18068 28.3418 4.19025C28.6912 5.1675 29.7586 5.67362 30.7713 5.346Z" fill="#8ACA25"/>
<path id="path38" d="M20.636 12.0245C20.5188 10.9566 21.2903 9.99547 22.3579 9.87897C23.4265 9.76178 24.3872 10.533 24.5039 11.6014C24.6204 12.6693 23.8496 13.63 22.7815 13.7464C21.7131 13.8636 20.7527 13.0926 20.636 12.0245Z" fill="#8ACA25"/>
<path id="path40" d="M16.6174 13.1234C16.532 12.3502 17.0913 11.6529 17.8648 11.568C18.6394 11.484 19.3357 12.0433 19.4199 12.8167C19.5046 13.5912 18.9466 14.287 18.1721 14.3719C17.3977 14.4564 16.7017 13.8978 16.6174 13.1234Z" fill="#8ACA25"/>
<path id="path42" d="M21.9897 2.74832C21.9019 1.94657 21.1816 1.3687 20.3796 1.45613C19.5784 1.54376 19.0002 2.2647 19.0874 3.06551C19.1755 3.86576 19.8962 4.44513 20.6975 4.35751C21.4985 4.26863 22.0776 3.54888 21.9897 2.74832Z" fill="#3792AD"/>
<path id="path44" d="M17.9519 3.35256C17.8537 2.45143 17.0425 1.80081 16.1416 1.89918C15.2402 1.99812 14.5896 2.80862 14.6877 3.70949C14.7864 4.61087 15.5969 5.26299 16.4987 5.16387C17.3999 5.06449 18.0503 4.25368 17.9519 3.35256Z" fill="#3792AD"/>
<path id="path46" d="M53.5044 4.73319C53.4019 3.7945 52.5571 3.11575 51.6177 3.21857C50.6787 3.32107 50.0008 4.16681 50.1028 5.106C50.2053 6.0445 51.0506 6.72219 51.9905 6.61969C52.9289 6.51713 53.6074 5.67219 53.5044 4.73319Z" fill="#3792AD"/>
<path id="path48" d="M38.2488 14.0304C38.1763 13.3627 37.5757 12.8812 36.9084 12.9544C36.2403 13.0269 35.7588 13.6273 35.8313 14.2948C35.9046 14.963 36.5044 15.4452 37.1729 15.3719C37.8406 15.2987 38.322 14.6984 38.2488 14.0304Z" fill="#3792AD"/>
<path id="path50" d="M34.6778 12.2134C34.6191 11.6785 34.1389 11.2945 33.6055 11.3523C33.0713 11.4107 32.6851 11.8912 32.7434 12.4253C32.8023 12.9588 33.2825 13.3443 33.8164 13.2864C34.3511 13.2271 34.7363 12.7474 34.6778 12.2134Z" fill="#3792AD"/>
<path id="path52" d="M31.593 9.79233C31.5491 9.39071 31.1885 9.10233 30.7878 9.14633C30.3874 9.19002 30.0977 9.5499 30.1421 9.95077C30.1862 10.3511 30.5461 10.6405 30.9466 10.5968C31.3477 10.5533 31.6365 10.1917 31.593 9.79233Z" fill="#3792AD"/>
<path id="path54" d="M10.8634 10.7984L12.5376 12.1331V50.4097C12.4543 54.4852 7.89937 57.95 4.43157 57.95C3.38811 57.95 2.34295 57.9048 1.5075 57.2957C0.172291 56.3118 -0.0381584 54.6724 0.00481033 52.9385C0.129078 48.7691 4.51458 45.5389 8.10905 45.3963C8.98262 45.3584 9.85855 45.4168 10.8786 45.9871C11.0776 46.0982 10.8634 10.7984 10.8634 10.7984Z" fill="#3792AD"/>
<path id="path56" d="M14.4385 6.29573C14.3252 5.26279 13.3967 4.52061 12.3659 4.63242C11.3345 4.74523 10.5881 5.67317 10.7014 6.70567C10.8144 7.73592 11.7422 8.48079 12.7742 8.36873C13.8064 8.25423 14.5517 7.32748 14.4385 6.29573Z" fill="#3792AD"/>
<path id="path58" d="M54.4858 13.1956C54.4131 12.5279 54.8952 11.9271 55.5625 11.8538C56.2307 11.7808 56.8313 12.2639 56.9041 12.9307C56.9773 13.5992 56.4956 14.1995 55.8274 14.272C55.1597 14.3453 54.5591 13.8631 54.4858 13.1956Z" fill="#8ACA25"/>
<path id="path60" d="M26.0886 43.7398C26.3974 43.784 26.8105 43.8228 27.3291 43.8553C27.8464 43.8885 28.3925 43.9061 28.966 43.9061C29.8257 43.9061 30.6692 43.8285 31.4961 43.6736C32.323 43.5191 33.0554 43.2555 33.6953 42.8795C34.3342 42.5055 34.8474 42.0086 35.2329 41.3921C35.6186 40.7747 35.812 40.003 35.812 39.0767C35.812 38.1512 35.6467 37.3736 35.3157 36.7455C34.9851 36.1163 34.5327 35.6046 33.9597 35.2073C33.3865 34.8104 32.7139 34.5242 31.9421 34.3477C31.1704 34.171 30.3435 34.0836 29.4619 34.0836H26.0886V43.7398ZM29.2305 31.9331C31.0166 31.9331 32.323 31.5365 33.1494 30.7428C33.9763 29.949 34.3896 28.9129 34.3896 27.6338C34.3896 26.4432 33.9541 25.4463 33.0835 24.6414C32.2122 23.8365 30.8399 23.4334 28.966 23.4334C28.3925 23.4334 27.8464 23.4561 27.3291 23.5001C26.8105 23.5443 26.3974 23.5882 26.0886 23.6326V31.9331H29.2305ZM23.8066 21.8131C24.0271 21.7916 24.341 21.7584 24.7495 21.7144C25.157 21.6702 25.5925 21.6258 26.0557 21.5816C26.5185 21.5376 26.9865 21.505 27.4612 21.4823C27.9353 21.4608 28.3594 21.4498 28.7344 21.4498C31.3357 21.4498 33.3315 21.9513 34.7204 22.9544C36.1096 23.9576 36.8039 25.5174 36.8039 27.6338C36.8039 28.3175 36.699 28.9403 36.4895 29.5025C36.2802 30.065 35.9987 30.5721 35.6467 31.024C35.2934 31.4759 34.8804 31.8563 34.406 32.1648C33.9319 32.474 33.4414 32.7051 32.9345 32.8592C33.6177 32.9476 34.2793 33.1295 34.9192 33.4051C35.5581 33.681 36.1262 34.0665 36.622 34.5626C37.1182 35.0584 37.5149 35.6763 37.8127 36.4141C38.1101 37.1531 38.259 38.0413 38.259 39.0767C38.259 40.2666 38.022 41.2935 37.5481 42.1519C37.0737 43.0123 36.4124 43.7291 35.5639 44.3021C34.7149 44.8763 33.7119 45.3006 32.5542 45.5755C31.3967 45.8514 30.1342 45.9888 28.7673 45.9888C28.415 45.9888 28.0175 45.9773 27.5767 45.9554C27.136 45.9339 26.6894 45.9063 26.2378 45.8726C25.7854 45.8404 25.3445 45.795 24.9145 45.7401C24.4849 45.6856 24.115 45.6356 23.8066 45.5914V21.8131Z" fill="#393536"/>
<path id="path62" d="M41.3012 24.5914C41.2793 24.3929 41.2627 24.1502 41.2517 23.8636C41.2402 23.5774 41.2354 23.3348 41.2354 23.1358C41.2354 22.9598 41.2402 22.7396 41.2517 22.4747C41.2627 22.21 41.2793 21.9901 41.3012 21.8131C41.4995 21.7916 41.7422 21.7749 42.0291 21.7635C42.3154 21.7528 42.5581 21.7474 42.7564 21.7474C42.9331 21.7474 43.1531 21.7528 43.418 21.7635C43.6826 21.7749 43.9026 21.7916 44.0796 21.8131C44.1013 21.9901 44.1174 22.21 44.1294 22.4747C44.1396 22.7396 44.1455 22.9598 44.1455 23.1358C44.1455 23.3348 44.1396 23.5774 44.1294 23.8636C44.1174 24.1502 44.1013 24.3929 44.0796 24.5914C43.9026 24.6136 43.6826 24.6299 43.418 24.6414C43.1531 24.6524 42.9331 24.6573 42.7564 24.6573C42.5581 24.6573 42.3154 24.6524 42.0291 24.6414C41.7422 24.6299 41.4995 24.6136 41.3012 24.5914ZM42.3926 30.5769H40.2759C40.2537 30.4673 40.2371 30.335 40.2268 30.1809C40.2153 30.0264 40.2099 29.8609 40.2099 29.6844C40.2099 29.5084 40.2153 29.3318 40.2268 29.1551C40.2371 28.9788 40.2537 28.8358 40.2759 28.7249H44.5754V45.5914C44.4434 45.6131 44.2615 45.6307 44.0298 45.6414C43.7979 45.6521 43.6162 45.6585 43.4841 45.6585C43.3736 45.6585 43.1972 45.6521 42.9551 45.6414C42.7119 45.6307 42.5247 45.6131 42.3926 45.5914V30.5769Z" fill="#393536"/>
<path id="path64" d="M55.5552 44.0701C57.319 44.0701 58.6362 43.4537 59.507 42.2188C60.3779 40.9842 60.8132 39.2975 60.8132 37.1588C60.8132 35.0203 60.3779 33.3341 59.507 32.0985C58.6362 30.8641 57.319 30.2466 55.5552 30.2466C53.7912 30.2466 52.4741 30.8641 51.6028 32.0985C50.7314 33.3341 50.2969 35.0203 50.2969 37.1588C50.2969 39.2975 50.7314 40.9842 51.6028 42.2188C52.4741 43.4537 53.7912 44.0701 55.5552 44.0701ZM55.5552 45.9888C54.2983 45.9888 53.1961 45.7633 52.2481 45.3108C51.2996 44.8595 50.5117 44.2366 49.8836 43.442C49.2551 42.6483 48.7864 41.712 48.4776 40.6307C48.1689 39.5516 48.0149 38.3934 48.0149 37.1588C48.0149 35.9244 48.1689 34.7664 48.4776 33.6858C48.7864 32.6058 49.2551 31.6688 49.8836 30.8748C50.5117 30.0809 51.2996 29.4586 52.2481 29.0066C53.1961 28.555 54.2983 28.3285 55.5552 28.3285C56.812 28.3285 57.9087 28.555 58.8457 29.0066C59.7825 29.4586 60.5659 30.0809 61.194 30.8748C61.8222 31.6688 62.2964 32.6058 62.6162 33.6858C62.9356 34.7664 63.0956 35.9244 63.0956 37.1588C63.0956 38.3934 62.9356 39.5516 62.6162 40.6307C62.2964 41.712 61.8222 42.6483 61.194 43.442C60.5659 44.2366 59.7825 44.8595 58.8457 45.3108C57.9087 45.7633 56.812 45.9888 55.5552 45.9888Z" fill="#393536"/>
<path id="path66" d="M77.7131 43.4749C77.8231 43.6959 77.9281 43.9947 78.0275 44.3687C78.1262 44.7435 78.1981 45.0523 78.2425 45.2945C77.6906 45.4928 77.0625 45.6585 76.3575 45.7911C75.6512 45.9225 74.8694 45.9888 74.0087 45.9888C71.2525 45.9888 69.1581 45.2342 67.725 43.7237C66.2919 42.2135 65.5756 40.0252 65.5756 37.1588C65.5756 35.9019 65.7519 34.7388 66.105 33.6698C66.4569 32.6004 66.9756 31.6688 67.6588 30.8748C68.3425 30.0809 69.1969 29.4586 70.2225 29.0066C71.2475 28.555 72.4325 28.3285 73.7775 28.3285C74.615 28.3285 75.415 28.3895 76.175 28.5103C76.9356 28.6321 77.5363 28.7698 77.9781 28.9234C77.9781 29.2103 77.9388 29.5411 77.8619 29.9156C77.7844 30.2911 77.7019 30.5887 77.6137 30.8089C77.1725 30.6546 76.6156 30.5225 75.9437 30.4122C75.2712 30.3021 74.5494 30.2466 73.7775 30.2466C72.7856 30.2466 71.92 30.4178 71.1813 30.7591C70.4425 31.1014 69.8256 31.5811 69.3294 32.1981C68.8331 32.8153 68.4638 33.5428 68.2213 34.3807C67.9788 35.2188 67.8575 36.1443 67.8575 37.1588C67.8575 39.5394 68.425 41.2876 69.5606 42.4005C70.6962 43.5142 72.2344 44.0701 74.1744 44.0701C74.8356 44.0701 75.4694 44.0157 76.0762 43.9061C76.6819 43.7948 77.2275 43.6519 77.7131 43.4749Z" fill="#393536"/>
<path id="path68" d="M87.0731 44.0701C88.8362 44.0701 90.1537 43.4537 91.025 42.2188C91.8956 40.9842 92.3306 39.2975 92.3306 37.1588C92.3306 35.0203 91.8956 33.3341 91.025 32.0985C90.1537 30.8641 88.8362 30.2466 87.0731 30.2466C85.3081 30.2466 83.9912 30.8641 83.1206 32.0985C82.2494 33.3341 81.8144 35.0203 81.8144 37.1588C81.8144 39.2975 82.2494 40.9842 83.1206 42.2188C83.9912 43.4537 85.3081 44.0701 87.0731 44.0701ZM87.0731 45.9888C85.8156 45.9888 84.7131 45.7633 83.7656 45.3108C82.8169 44.8595 82.0294 44.2366 81.4006 43.442C80.7725 42.6483 80.3037 41.712 79.995 40.6307C79.6862 39.5516 79.5319 38.3934 79.5319 37.1588C79.5319 35.9244 79.6862 34.7664 79.995 33.6858C80.3037 32.6058 80.7725 31.6688 81.4006 30.8748C82.0294 30.0809 82.8169 29.4586 83.7656 29.0066C84.7131 28.555 85.8156 28.3285 87.0731 28.3285C88.3294 28.3285 89.4256 28.555 90.3631 29.0066C91.3006 29.4586 92.0831 30.0809 92.7112 30.8748C93.3394 31.6688 93.8137 32.6058 94.1331 33.6858C94.4531 34.7664 94.6131 35.9244 94.6131 37.1588C94.6131 38.3934 94.4531 39.5516 94.1331 40.6307C93.8137 41.712 93.3394 42.6483 92.7112 43.442C92.0831 44.2366 91.3006 44.8595 90.3631 45.3108C89.4256 45.7633 88.3294 45.9888 87.0731 45.9888Z" fill="#393536"/>
<path id="path70" d="M97.4269 28.7249C97.6031 28.7034 97.7744 28.6871 97.94 28.6758C98.105 28.6653 98.265 28.6593 98.4194 28.6593C98.5956 28.6593 98.7613 28.6653 98.9156 28.6758C99.0688 28.6871 99.2344 28.7034 99.4113 28.7249C99.455 29.1226 99.4881 29.6182 99.5106 30.2134C99.5325 30.8089 99.5438 31.3269 99.5438 31.7681C99.7638 31.3714 100.051 30.9691 100.404 30.5606C100.756 30.1526 101.17 29.7833 101.644 29.4529C102.118 29.1226 102.663 28.8523 103.281 28.6426C103.898 28.4331 104.57 28.3284 105.298 28.3284C107.239 28.3284 108.649 28.907 109.531 30.065C110.414 31.2224 110.855 32.8484 110.855 34.9429V45.5914C110.723 45.6131 110.54 45.6307 110.309 45.6414C110.078 45.6521 109.896 45.6585 109.763 45.6585C109.653 45.6585 109.477 45.6521 109.234 45.6414C108.991 45.6307 108.803 45.6131 108.672 45.5914V35.6046C108.672 33.7303 108.379 32.3856 107.795 31.5694C107.211 30.7542 106.334 30.3455 105.166 30.3455C104.394 30.3455 103.666 30.5001 102.983 30.8089C102.299 31.1175 101.71 31.5643 101.214 32.148C100.718 32.7327 100.326 33.4544 100.04 34.3145C99.7531 35.1744 99.61 36.1556 99.61 37.2579V45.5914C99.4781 45.6131 99.2963 45.6307 99.0638 45.6414C98.8325 45.6521 98.6506 45.6585 98.5181 45.6585C98.4081 45.6585 98.2319 45.6521 97.9894 45.6414C97.7469 45.6307 97.5594 45.6131 97.4269 45.5914V28.7249Z" fill="#393536"/>
<path id="path72" d="M126.266 30.974C125.824 30.7976 125.262 30.6383 124.578 30.4947C123.895 30.3511 123.189 30.2801 122.462 30.2801C121.426 30.2801 120.527 30.4564 119.766 30.8089C119.007 31.1617 118.371 31.6521 117.864 32.2803C117.358 32.9093 116.977 33.6641 116.723 34.546C116.469 35.428 116.344 36.3978 116.344 37.4566C116.344 39.7493 116.89 41.4205 117.98 42.4664C119.072 43.5142 120.621 44.0372 122.627 44.0372C123.355 44.0372 124.05 43.9996 124.711 43.9217C125.372 43.8448 125.89 43.7503 126.266 43.6412V30.974ZM126.266 21.2838C126.398 21.2623 126.584 21.2459 126.826 21.2347C127.07 21.224 127.246 21.2178 127.357 21.2178C127.489 21.2178 127.67 21.224 127.901 21.2347C128.133 21.2459 128.315 21.2623 128.447 21.2838V45.1961C127.764 45.4161 126.916 45.6026 125.901 45.7576C124.887 45.9112 123.829 45.9888 122.727 45.9888C121.513 45.9888 120.379 45.845 119.321 45.5591C118.262 45.2728 117.346 44.7984 116.575 44.1375C115.803 43.4749 115.191 42.6041 114.739 41.525C114.287 40.4435 114.062 39.1104 114.062 37.5225C114.062 36.067 114.259 34.7725 114.657 33.6368C115.054 32.501 115.616 31.5423 116.344 30.7591C117.072 29.9766 117.947 29.376 118.973 28.9566C119.998 28.5379 121.127 28.3285 122.362 28.3285C123.091 28.3285 123.812 28.3895 124.529 28.5103C125.245 28.6321 125.824 28.7698 126.266 28.9234V21.2838Z" fill="#393536"/>
<path id="path74" d="M132.163 28.7249C132.294 28.7035 132.483 28.6871 132.725 28.6758C132.968 28.6653 133.144 28.6593 133.254 28.6593C133.387 28.6593 133.569 28.6653 133.801 28.6758C134.032 28.6871 134.214 28.7035 134.347 28.7249V38.2169C134.347 39.4075 134.467 40.3831 134.71 41.1434C134.952 41.9048 135.31 42.4998 135.784 42.9295C136.258 43.36 136.837 43.657 137.521 43.8228C138.203 43.9876 138.977 44.0701 139.836 44.0701C140.563 44.0701 141.214 44.033 141.787 43.9551C142.36 43.8778 142.867 43.7735 143.308 43.6412V28.7249C143.441 28.7035 143.628 28.6871 143.871 28.6758C144.112 28.6653 144.29 28.6593 144.401 28.6593C144.532 28.6593 144.714 28.6653 144.946 28.6758C145.177 28.6871 145.36 28.7035 145.491 28.7249V45.1622C144.674 45.3831 143.766 45.5755 142.762 45.7401C141.759 45.9063 140.729 45.9888 139.671 45.9888C138.633 45.9888 137.659 45.89 136.744 45.6908C135.829 45.4928 135.036 45.1121 134.362 44.5503C133.689 43.9876 133.154 43.2108 132.759 42.2188C132.362 41.2261 132.163 39.9371 132.163 38.3495V28.7249Z" fill="#393536"/>
<path id="path76" d="M161.142 43.4749C161.252 43.6959 161.356 43.9947 161.456 44.3687C161.554 44.7435 161.626 45.0523 161.671 45.2945C161.119 45.4928 160.491 45.6585 159.786 45.7911C159.08 45.9225 158.298 45.9888 157.438 45.9888C154.681 45.9888 152.587 45.2342 151.154 43.7237C149.721 42.2135 149.004 40.0252 149.004 37.1588C149.004 35.9019 149.181 34.7388 149.533 33.6698C149.886 32.6004 150.405 31.6688 151.089 30.8748C151.771 30.0809 152.626 29.4586 153.65 29.0066C154.677 28.555 155.861 28.3285 157.206 28.3285C158.044 28.3285 158.843 28.3895 159.604 28.5103C160.364 28.6321 160.964 28.7698 161.406 28.9234C161.406 29.2103 161.368 29.5411 161.291 29.9156C161.213 30.2911 161.131 30.5887 161.042 30.8089C160.601 30.6546 160.044 30.5225 159.373 30.4122C158.699 30.3021 157.977 30.2466 157.206 30.2466C156.214 30.2466 155.348 30.4178 154.609 30.7591C153.871 31.1014 153.255 31.5811 152.758 32.1981C152.262 32.8153 151.893 33.5428 151.649 34.3807C151.407 35.2188 151.286 36.1443 151.286 37.1588C151.286 39.5394 151.853 41.2876 152.989 42.4005C154.126 43.5142 155.663 44.0701 157.603 44.0701C158.265 44.0701 158.898 44.0157 159.505 43.9061C160.111 43.7948 160.657 43.6519 161.142 43.4749Z" fill="#393536"/>
<path id="path78" d="M166.83 30.5769H163.954C163.931 30.4673 163.914 30.3243 163.902 30.1473C163.891 29.9713 163.886 29.7952 163.886 29.6182C163.886 29.4417 163.891 29.2769 163.902 29.1226C163.914 28.9681 163.931 28.8358 163.954 28.7249H166.83V25.5503L168.88 23.5328H169.013V28.7249H173.576C173.598 28.8358 173.615 28.9681 173.626 29.1226C173.637 29.2769 173.642 29.4417 173.642 29.6182C173.642 29.7952 173.637 29.9713 173.626 30.1473C173.615 30.3243 173.598 30.4673 173.576 30.5769H169.013V41.5572C169.013 42.1089 169.084 42.5443 169.227 42.8633C169.37 43.1831 169.559 43.4304 169.791 43.6077C170.022 43.784 170.286 43.9002 170.583 43.9551C170.881 44.0098 171.184 44.0372 171.493 44.0372C172.264 44.0372 172.937 43.9378 173.511 43.7398C173.665 44.3138 173.774 44.9307 173.841 45.5914C173.048 45.8345 172.121 45.9554 171.062 45.9554C169.806 45.9554 168.786 45.6197 168.004 44.9468C167.221 44.2747 166.83 43.178 166.83 41.657V30.5769Z" fill="#393536"/>
<path id="path80" d="M182.439 44.0701C184.203 44.0701 185.52 43.4537 186.391 42.2188C187.262 40.9842 187.697 39.2975 187.697 37.1588C187.697 35.0203 187.262 33.3341 186.391 32.0985C185.52 30.8641 184.203 30.2466 182.439 30.2466C180.675 30.2466 179.358 30.8641 178.487 32.0985C177.616 33.3341 177.181 35.0203 177.181 37.1588C177.181 39.2975 177.616 40.9842 178.487 42.2188C179.358 43.4537 180.675 44.0701 182.439 44.0701ZM182.439 45.9888C181.183 45.9888 180.08 45.7633 179.133 45.3108C178.184 44.8595 177.396 44.2366 176.768 43.442C176.139 42.6483 175.671 41.712 175.361 40.6307C175.052 39.5516 174.898 38.3934 174.898 37.1588C174.898 35.9244 175.052 34.7664 175.361 33.6858C175.671 32.6058 176.139 31.6688 176.768 30.8748C177.396 30.0809 178.184 29.4586 179.133 29.0066C180.08 28.555 181.183 28.3285 182.439 28.3285C183.696 28.3285 184.792 28.555 185.729 29.0066C186.667 29.4586 187.449 30.0809 188.078 30.8748C188.706 31.6688 189.181 32.6058 189.501 33.6858C189.82 34.7664 189.981 35.9244 189.981 37.1588C189.981 38.3934 189.82 39.5516 189.501 40.6307C189.181 41.712 188.706 42.6483 188.078 43.442C187.449 44.2366 186.667 44.8595 185.729 45.3108C184.792 45.7633 183.696 45.9888 182.439 45.9888Z" fill="#393536"/>
<path id="path82" d="M193.419 28.7249C193.595 28.7034 193.767 28.6871 193.931 28.6758C194.097 28.6653 194.256 28.6593 194.411 28.6593C194.587 28.6593 194.753 28.6653 194.908 28.6758C195.061 28.6871 195.226 28.7034 195.403 28.7249C195.447 29.1226 195.48 29.5906 195.502 30.1311C195.524 30.6712 195.535 31.1617 195.535 31.6026C195.977 30.7872 196.593 30.0979 197.388 29.5359C198.181 28.9734 199.228 28.6919 200.529 28.6919C200.639 28.6919 200.756 28.6919 200.876 28.6919C200.998 28.6919 201.136 28.7034 201.289 28.7249C201.356 29.1004 201.389 29.4529 201.389 29.7833C201.389 30.1365 201.356 30.4783 201.289 30.8089C201.113 30.7872 200.977 30.7759 200.876 30.7759C200.777 30.7759 200.672 30.7759 200.563 30.7759C199.063 30.7759 197.862 31.2496 196.958 32.1981C196.053 33.1463 195.602 34.7227 195.602 36.9273V45.5914C195.469 45.6131 195.288 45.6307 195.056 45.6414C194.824 45.6521 194.643 45.6585 194.51 45.6585C194.399 45.6585 194.223 45.6521 193.981 45.6414C193.738 45.6307 193.551 45.6131 193.419 45.5914V28.7249Z" fill="#393536"/>
<path id="path84" d="M25.3965 55.7735C25.6326 55.7735 25.8369 55.7283 26.0092 55.6356C26.1819 55.544 26.3247 55.4105 26.438 55.2352C26.5517 55.0601 26.6367 54.8502 26.6931 54.6041C26.7502 54.3587 26.7786 54.0804 26.7786 53.7679C26.7786 53.4603 26.7502 53.1832 26.6931 52.9354C26.6367 52.6863 26.5517 52.4764 26.438 52.3043C26.3247 52.1309 26.1819 51.9991 26.0092 51.9063C25.8369 51.8148 25.6326 51.7691 25.3965 51.7691C25.1599 51.7691 24.9558 51.8148 24.7829 51.9063C24.6106 51.9991 24.4677 52.1309 24.3542 52.3043C24.2407 52.4764 24.1555 52.6863 24.0991 52.9354C24.0425 53.1832 24.0144 53.4603 24.0144 53.7679C24.0144 54.0804 24.0425 54.3587 24.0991 54.6041C24.1555 54.8502 24.2407 55.0601 24.3542 55.2352C24.4677 55.4105 24.6106 55.544 24.7829 55.6356C24.9558 55.7283 25.1599 55.7735 25.3965 55.7735ZM25.3965 56.3973C25.0274 56.3973 24.7092 56.3326 24.4394 56.2025C24.1699 56.0726 23.9467 55.8907 23.7696 55.657C23.5921 55.4227 23.4599 55.1448 23.3726 54.8238C23.2849 54.5027 23.2412 54.15 23.2412 53.7679C23.2412 53.3853 23.2849 53.033 23.3726 52.712C23.4599 52.3897 23.5921 52.1126 23.7696 51.8782C23.9467 51.6451 24.1699 51.462 24.4394 51.3289C24.7092 51.1971 25.0274 51.1311 25.3965 51.1311C25.7651 51.1311 26.0837 51.1971 26.353 51.3289C26.6226 51.462 26.8459 51.6451 27.0232 51.8782C27.2002 52.1126 27.3318 52.3897 27.4167 52.712C27.5014 53.033 27.5442 53.3853 27.5442 53.7679C27.5442 54.15 27.5014 54.5027 27.4167 54.8238C27.3318 55.1448 27.2002 55.4227 27.0232 55.657C26.8459 55.8907 26.6226 56.0726 26.353 56.2025C26.0837 56.3326 25.7651 56.3973 25.3965 56.3973Z" fill="#393536"/>
<path id="path86" d="M29.8547 53.8387C29.9304 53.8485 29.9968 53.8553 30.0537 53.8602C30.1101 53.8643 30.1929 53.8668 30.3015 53.8668C30.448 53.8668 30.5932 53.8521 30.7376 53.8211C30.8816 53.7906 31.01 53.7349 31.1242 53.6544C31.2368 53.5738 31.3281 53.4639 31.3965 53.3243C31.4651 53.1856 31.4995 53.0049 31.4995 52.7828C31.4995 52.5887 31.47 52.4258 31.4109 52.2933C31.3516 52.1607 31.2705 52.0548 31.1662 51.9742C31.0622 51.8941 30.9372 51.8375 30.7907 51.8038C30.6443 51.7715 30.4856 51.7542 30.3159 51.7542C30.1406 51.7542 29.9876 51.7623 29.8547 51.7757V53.8387ZM29.1318 51.2093C29.2031 51.1995 29.2869 51.1898 29.3836 51.1807C29.4802 51.1715 29.5822 51.1629 29.6885 51.1556C29.7949 51.1483 29.9011 51.1426 30.0073 51.138C30.1137 51.1336 30.2163 51.1311 30.3159 51.1311C30.5752 51.1311 30.8227 51.1568 31.0561 51.2093C31.2903 51.2613 31.4961 51.3509 31.6733 51.4783C31.8506 51.606 31.9909 51.7745 32.0947 51.9852C32.1985 52.1956 32.2512 52.4588 32.2512 52.7755C32.2512 53.1063 32.1956 53.3809 32.084 53.6019C31.9736 53.8211 31.8271 53.9974 31.6447 54.1292C31.4626 54.2618 31.2564 54.355 31.0244 54.4095C30.793 54.4637 30.5566 54.4905 30.3159 54.4905C30.2258 54.4905 30.1465 54.4893 30.0784 54.4881C30.0095 54.4852 29.9356 54.4791 29.8547 54.4698V56.3126C29.7414 56.327 29.6213 56.3338 29.4934 56.3338C29.437 56.3338 29.3764 56.3326 29.313 56.3301C29.249 56.3277 29.1887 56.3216 29.1318 56.3126V51.2093Z" fill="#393536"/>
<path id="path88" d="M33.6756 51.2154H36.4756C36.4895 51.3106 36.4968 51.4144 36.4968 51.5279C36.4968 51.5804 36.4956 51.6341 36.4932 51.6909C36.4908 51.7476 36.4851 51.8001 36.4756 51.8472H34.3984V53.3072H36.0571C36.0666 53.3541 36.0738 53.4053 36.0786 53.459C36.083 53.514 36.0854 53.5665 36.0854 53.619C36.0854 53.6707 36.083 53.7252 36.0786 53.782C36.0738 53.8387 36.0666 53.8912 36.0571 53.9388H34.3984V55.6819H36.532C36.5464 55.7759 36.5537 55.8797 36.5537 55.9932C36.5537 56.0457 36.5525 56.1002 36.5503 56.1568C36.5474 56.2129 36.5418 56.2654 36.532 56.3126H33.6756V51.2154Z" fill="#393536"/>
<path id="path90" d="M38.0066 51.2154C38.0588 51.2064 38.114 51.1995 38.1731 51.1946C38.2322 51.1898 38.2878 51.1873 38.3399 51.1873C38.3919 51.1873 38.4475 51.1898 38.5066 51.1946C38.5654 51.1995 38.6209 51.2064 38.6731 51.2154L40.8919 55.0435V51.2154C40.9488 51.2064 41.0073 51.1995 41.0693 51.1946C41.1304 51.1898 41.1919 51.1873 41.2532 51.1873C41.3049 51.1873 41.3591 51.1898 41.416 51.1946C41.4731 51.1995 41.5274 51.2064 41.5796 51.2154V56.3126C41.5274 56.3216 41.4719 56.3289 41.4126 56.3338C41.3535 56.3387 41.2981 56.3411 41.2461 56.3411C41.1941 56.3411 41.1387 56.3387 41.0796 56.3338C41.0203 56.3289 40.9649 56.3216 40.9131 56.3126L38.687 52.5057V56.3126C38.6355 56.3216 38.5796 56.3289 38.5207 56.3338C38.4614 56.3387 38.4036 56.3411 38.3469 56.3411C38.2854 56.3411 38.2253 56.3387 38.1657 56.3338C38.1069 56.3289 38.0539 56.3216 38.0066 56.3126V51.2154Z" fill="#393536"/>
<path id="path92" d="M45.4424 55.5399C45.5986 55.5965 45.7615 55.6465 45.9314 55.6893C46.1013 55.7308 46.3096 55.7527 46.5552 55.7527C46.9424 55.7527 47.2324 55.6734 47.4236 55.5154C47.615 55.3568 47.7109 55.1424 47.7109 54.8738C47.7109 54.7413 47.6907 54.6285 47.6501 54.5333C47.6106 54.4393 47.5501 54.3575 47.4697 54.2891C47.3892 54.2195 47.2891 54.1573 47.1684 54.1011C47.0481 54.045 46.9077 53.9827 46.7466 53.9168L46.3428 53.754C46.2053 53.6971 46.0803 53.6336 45.9671 53.5652C45.8535 53.4969 45.7554 53.4132 45.6729 53.3138C45.5901 53.2149 45.5251 53.1007 45.4778 52.9703C45.4304 52.8402 45.4065 52.6859 45.4065 52.5057C45.4065 52.076 45.5533 51.7391 45.8462 51.4961C46.1392 51.252 46.5506 51.1311 47.0798 51.1311C47.3069 51.1311 47.5218 51.1495 47.7249 51.1873C47.9283 51.2251 48.1077 51.2728 48.2637 51.3289C48.24 51.5279 48.1883 51.7239 48.1077 51.9173C47.98 51.8697 47.8323 51.8282 47.6648 51.7903C47.4966 51.7525 47.3069 51.733 47.0942 51.733C46.7961 51.733 46.5666 51.7933 46.4065 51.9144C46.2459 52.0345 46.1655 52.2152 46.1655 52.4556C46.1655 52.5557 46.1856 52.6444 46.2256 52.723C46.2661 52.7999 46.3191 52.8694 46.3853 52.9276C46.4512 52.9866 46.5293 53.0403 46.6191 53.0867C46.709 53.1343 46.803 53.1771 46.9024 53.2149L47.2996 53.3707C47.4883 53.4468 47.6565 53.525 47.803 53.6085C47.9494 53.691 48.0743 53.7874 48.1787 53.8992C48.2823 54.0096 48.3618 54.1414 48.4157 54.2928C48.4702 54.4429 48.4981 54.6212 48.4981 54.8238C48.4981 55.3109 48.3294 55.6942 47.9944 55.9761C47.6584 56.2569 47.1882 56.3973 46.5835 56.3973C46.437 56.3973 46.3049 56.3936 46.1865 56.3839C46.0689 56.3741 45.959 56.3594 45.8572 56.3411C45.7554 56.3216 45.6575 56.2984 45.5628 56.2703C45.468 56.241 45.3716 56.2112 45.2722 56.1776C45.2817 56.0738 45.303 55.9676 45.3364 55.859C45.3689 55.7503 45.4048 55.6436 45.4424 55.5399Z" fill="#393536"/>
<path id="path94" d="M51.9287 55.7735C52.1651 55.7735 52.3686 55.7283 52.5417 55.6356C52.7144 55.544 52.8572 55.4105 52.9702 55.2352C53.0842 55.0601 53.1689 54.8502 53.2253 54.6041C53.2825 54.3587 53.3108 54.0804 53.3108 53.7679C53.3108 53.4603 53.2825 53.1832 53.2253 52.9354C53.1689 52.6863 53.0842 52.4764 52.9702 52.3043C52.8572 52.1309 52.7144 51.9991 52.5417 51.9063C52.3686 51.8148 52.1651 51.7691 51.9287 51.7691C51.6924 51.7691 51.4881 51.8148 51.3154 51.9063C51.1426 51.9991 51 52.1309 50.8865 52.3043C50.7729 52.4764 50.688 52.6863 50.6314 52.9354C50.5747 53.1832 50.5461 53.4603 50.5461 53.7679C50.5461 54.0804 50.5747 54.3587 50.6314 54.6041C50.688 54.8502 50.7729 55.0601 50.8865 55.2352C51 55.4105 51.1426 55.544 51.3154 55.6356C51.4881 55.7283 51.6924 55.7735 51.9287 55.7735ZM51.9287 56.3973C51.5598 56.3973 51.2412 56.3326 50.9714 56.2025C50.7021 56.0726 50.4792 55.8907 50.3017 55.657C50.1247 55.4227 49.9924 55.1448 49.9048 54.8238C49.8171 54.5027 49.7737 54.15 49.7737 53.7679C49.7737 53.3853 49.8171 53.033 49.9048 52.712C49.9924 52.3897 50.1247 52.1126 50.3017 51.8782C50.4792 51.6451 50.7021 51.462 50.9714 51.3289C51.2412 51.1971 51.5598 51.1311 51.9287 51.1311C52.2974 51.1311 52.6162 51.1971 52.8855 51.3289C53.1552 51.462 53.3784 51.6451 53.5557 51.8782C53.7327 52.1126 53.8637 52.3897 53.949 52.712C54.0342 53.033 54.0762 53.3853 54.0762 53.7679C54.0762 54.15 54.0342 54.5027 53.949 54.8238C53.8637 55.1448 53.7327 55.4227 53.5557 55.657C53.3784 55.8907 53.1552 56.0726 52.8855 56.2025C52.6162 56.3326 52.2974 56.3973 51.9287 56.3973Z" fill="#393536"/>
<path id="path96" d="M55.6147 51.2154C55.7276 51.202 55.8506 51.1946 55.9829 51.1946C56.1106 51.1946 56.229 51.202 56.3376 51.2154V54.1085C56.3376 54.4014 56.3559 54.6517 56.3941 54.8592C56.4321 55.0667 56.4934 55.2364 56.5791 55.3658C56.6638 55.4964 56.7754 55.5916 56.9153 55.6527C57.0544 55.7149 57.2258 55.7454 57.4292 55.7454C57.6321 55.7454 57.8022 55.7149 57.9394 55.6527C58.0762 55.5916 58.1872 55.4964 58.2727 55.3658C58.3577 55.2364 58.4192 55.0667 58.4568 54.8592C58.4949 54.6517 58.5139 54.4014 58.5139 54.1085V51.2154C58.6316 51.202 58.7522 51.1946 58.8755 51.1946C59.0076 51.1946 59.1306 51.202 59.2436 51.2154V54.2354C59.2436 54.576 59.2122 54.8812 59.1479 55.1502C59.0842 55.4195 58.9802 55.6465 58.8364 55.8301C58.6916 56.0152 58.5039 56.1551 58.2727 56.252C58.041 56.3492 57.7597 56.3973 57.4292 56.3973C57.0984 56.3973 56.8174 56.3492 56.5854 56.252C56.354 56.1551 56.166 56.0152 56.022 55.8301C55.8777 55.6465 55.7739 55.4195 55.7102 55.1502C55.646 54.8812 55.6147 54.576 55.6147 54.2354V51.2154Z" fill="#393536"/>
<path id="path98" d="M60.9878 51.2093C61.0916 51.1995 61.1861 51.1898 61.2715 51.1807C61.3562 51.1715 61.4397 51.1629 61.5227 51.1556C61.6055 51.1483 61.6916 51.1426 61.7818 51.138C61.8713 51.1336 61.9702 51.1311 62.0794 51.1311C62.3203 51.1311 62.5588 51.1551 62.795 51.202C63.0319 51.2488 63.2419 51.3314 63.4256 51.4498C63.6106 51.5682 63.76 51.7276 63.8763 51.9283C63.9919 52.1292 64.05 52.3836 64.05 52.69C64.05 52.8743 64.0194 53.0428 63.9581 53.1942C63.8963 53.345 63.8181 53.4793 63.7238 53.5977C63.6294 53.7161 63.5213 53.8187 63.4013 53.9058C63.2806 53.9937 63.1644 54.0652 63.05 54.1219L62.9656 54.1646L64.4469 56.3126C64.3194 56.327 64.175 56.3338 64.0144 56.3338C63.8869 56.3338 63.7594 56.327 63.6319 56.3126L62.001 53.9522V53.9241L62.0579 53.9102C62.1858 53.8765 62.3203 53.8321 62.4619 53.7747C62.6038 53.7178 62.735 53.6434 62.8556 53.5518C62.9763 53.459 63.0763 53.348 63.1563 53.2186C63.2369 53.0887 63.2775 52.9317 63.2775 52.7466C63.2775 52.4068 63.1769 52.1541 62.9763 51.9886C62.775 51.8233 62.505 51.741 62.1643 51.741C62.084 51.741 62.0093 51.7435 61.9412 51.7476C61.8726 51.7525 61.7959 51.7598 61.7107 51.7691V56.3126C61.6587 56.3167 61.6006 56.3216 61.5369 56.327C61.4731 56.3314 61.4128 56.3338 61.3562 56.3338C61.2996 56.3338 61.2378 56.3326 61.1719 56.3301C61.1057 56.3277 61.0444 56.3216 60.9878 56.3126V51.2093Z" fill="#393536"/>
<path id="path100" d="M68.8838 55.5684C68.9875 55.7711 69.0537 55.9676 69.0825 56.1568C68.8837 56.241 68.6806 56.3033 68.4725 56.3411C68.265 56.3785 68.04 56.3973 67.7994 56.3973C67.4313 56.3973 67.0987 56.3375 66.8037 56.2166C66.5081 56.0958 66.2588 55.9236 66.0556 55.6995C65.8525 55.4752 65.6963 55.2017 65.5875 54.8812C65.4794 54.5589 65.4244 54.1976 65.4244 53.796C65.4244 53.3895 65.4794 53.0225 65.5875 52.6937C65.6963 52.3653 65.8525 52.0858 66.0556 51.8538C66.2588 51.6219 66.5069 51.4436 66.8 51.3191C67.0931 51.1941 67.4213 51.1311 67.785 51.1311C68.0544 51.1311 68.2856 51.1495 68.48 51.1873C68.6738 51.2251 68.8462 51.2703 68.9975 51.3216C68.9875 51.4315 68.9681 51.5311 68.9375 51.6231C68.9062 51.7159 68.87 51.8135 68.8275 51.9173C68.7562 51.8941 68.6875 51.8734 68.6212 51.8538C68.555 51.8355 68.485 51.8184 68.4088 51.8038C68.3331 51.7903 68.25 51.7794 68.1575 51.772C68.065 51.7654 67.96 51.7623 67.8419 51.7623C67.3269 51.7623 66.9262 51.9368 66.6406 52.286C66.3544 52.6363 66.2113 53.1392 66.2113 53.796C66.2113 54.1317 66.2513 54.4222 66.3319 54.6683C66.4125 54.9134 66.5256 55.1168 66.6725 55.2767C66.8188 55.4385 66.995 55.5587 67.2 55.6392C67.4056 55.7198 67.6363 55.7593 67.8913 55.7593C68.09 55.7593 68.2694 55.743 68.4306 55.71C68.5906 55.6771 68.7419 55.6295 68.8838 55.5684Z" fill="#393536"/>
<path id="path102" d="M70.5425 51.2154H73.3425C73.3569 51.3106 73.3643 51.4144 73.3643 51.5279C73.3643 51.5804 73.3625 51.6341 73.36 51.6909C73.3581 51.7476 73.3519 51.8001 73.3425 51.8472H71.2656V53.3072H72.9244C72.9337 53.3541 72.9412 53.4053 72.945 53.459C72.95 53.514 72.9525 53.5665 72.9525 53.619C72.9525 53.6707 72.95 53.7252 72.945 53.782C72.9412 53.8387 72.9337 53.8912 72.9244 53.9388H71.2656V55.6819H73.3987C73.4131 55.7759 73.4206 55.8797 73.4206 55.9932C73.4206 56.0457 73.4194 56.1002 73.4169 56.1568C73.4144 56.2129 73.4087 56.2654 73.3987 56.3126H70.5425V51.2154Z" fill="#393536"/>
<path id="path104" d="M76.9575 55.5399C77.1131 55.5965 77.2763 55.6465 77.4463 55.6893C77.6169 55.7308 77.8244 55.7527 78.0706 55.7527C78.4581 55.7527 78.7475 55.6734 78.9394 55.5154C79.13 55.3568 79.2256 55.1424 79.2256 54.8738C79.2256 54.7413 79.2056 54.6285 79.1656 54.5333C79.1256 54.4393 79.065 54.3575 78.9844 54.2891C78.9044 54.2195 78.8038 54.1573 78.6844 54.1011C78.5631 54.045 78.4231 53.9827 78.2619 53.9168L77.8575 53.754C77.7206 53.6971 77.595 53.6336 77.4825 53.5652C77.3688 53.4969 77.2706 53.4132 77.1875 53.3138C77.105 53.2149 77.04 53.1007 76.9931 52.9703C76.9456 52.8402 76.9219 52.6859 76.9219 52.5057C76.9219 52.076 77.0688 51.7391 77.3613 51.4961C77.655 51.252 78.0656 51.1311 78.595 51.1311C78.8219 51.1311 79.0369 51.1495 79.2406 51.1873C79.4431 51.2251 79.6225 51.2728 79.7788 51.3289C79.755 51.5279 79.7031 51.7239 79.6225 51.9173C79.4956 51.8697 79.3475 51.8282 79.18 51.7903C79.0119 51.7525 78.8219 51.733 78.6088 51.733C78.3113 51.733 78.0825 51.7933 77.9219 51.9144C77.7606 52.0345 77.6806 52.2152 77.6806 52.4556C77.6806 52.5557 77.7006 52.6444 77.7406 52.723C77.7813 52.7999 77.8344 52.8694 77.9006 52.9276C77.9669 52.9866 78.0444 53.0403 78.1344 53.0867C78.2238 53.1343 78.3188 53.1771 78.4175 53.2149L78.815 53.3707C79.0038 53.4468 79.1713 53.525 79.3181 53.6085C79.4644 53.691 79.5894 53.7874 79.6938 53.8992C79.7975 54.0096 79.8769 54.1414 79.9313 54.2928C79.9856 54.4429 80.0125 54.6212 80.0125 54.8238C80.0125 55.3109 79.845 55.6942 79.5094 55.9761C79.1731 56.2569 78.7038 56.3973 78.0988 56.3973C77.9525 56.3973 77.82 56.3936 77.7019 56.3839C77.5838 56.3741 77.4738 56.3594 77.3725 56.3411C77.2706 56.3216 77.1725 56.2984 77.0781 56.2703C76.9831 56.241 76.8869 56.2112 76.7875 56.1776C76.7969 56.0738 76.8181 55.9676 76.8506 55.859C76.8844 55.7503 76.92 55.6436 76.9575 55.5399Z" fill="#393536"/>
<path id="path106" d="M83.4438 55.7735C83.68 55.7735 83.8844 55.7283 84.0569 55.6356C84.2294 55.544 84.3725 55.4105 84.485 55.2352C84.5994 55.0601 84.6844 54.8502 84.7406 54.6041C84.7981 54.3587 84.8263 54.0804 84.8263 53.7679C84.8263 53.4603 84.7981 53.1832 84.7406 52.9354C84.6844 52.6863 84.5994 52.4764 84.485 52.3043C84.3725 52.1309 84.2294 51.9991 84.0569 51.9063C83.8844 51.8148 83.68 51.7691 83.4438 51.7691C83.2075 51.7691 83.0031 51.8148 82.8306 51.9063C82.6581 51.9991 82.515 52.1309 82.4019 52.3043C82.2888 52.4764 82.2031 52.6863 82.1469 52.9354C82.09 53.1832 82.0619 53.4603 82.0619 53.7679C82.0619 54.0804 82.09 54.3587 82.1469 54.6041C82.2031 54.8502 82.2888 55.0601 82.4019 55.2352C82.515 55.4105 82.6581 55.544 82.8306 55.6356C83.0031 55.7283 83.2075 55.7735 83.4438 55.7735ZM83.4438 56.3973C83.075 56.3973 82.7563 56.3326 82.4869 56.2025C82.2175 56.0726 81.9944 55.8907 81.8169 55.657C81.6394 55.4227 81.5075 55.1448 81.42 54.8238C81.3325 54.5027 81.2888 54.15 81.2888 53.7679C81.2888 53.3853 81.3325 53.033 81.42 52.712C81.5075 52.3897 81.6394 52.1126 81.8169 51.8782C81.9944 51.6451 82.2175 51.462 82.4869 51.3289C82.7563 51.1971 83.075 51.1311 83.4438 51.1311C83.8125 51.1311 84.1313 51.1971 84.4006 51.3289C84.67 51.462 84.8931 51.6451 85.0706 51.8782C85.2475 52.1126 85.3788 52.3897 85.4638 52.712C85.5488 53.033 85.5919 53.3853 85.5919 53.7679C85.5919 54.15 85.5488 54.5027 85.4638 54.8238C85.3788 55.1448 85.2475 55.4227 85.0706 55.657C84.8931 55.8907 84.67 56.0726 84.4006 56.2025C84.1313 56.3326 83.8125 56.3973 83.4438 56.3973Z" fill="#393536"/>
<path id="path108" d="M87.1787 51.2154H89.8444C89.8537 51.263 89.8606 51.3138 89.8662 51.368C89.87 51.4229 89.8731 51.4754 89.8731 51.5279C89.8731 51.5804 89.87 51.6341 89.8662 51.691C89.8606 51.7476 89.8537 51.8001 89.8444 51.8472H87.9025V53.3419H89.5256C89.535 53.3944 89.5419 53.4481 89.5469 53.5018C89.5512 53.5562 89.5537 53.6099 89.5537 53.6617C89.5537 53.7137 89.5512 53.7667 89.5469 53.8211C89.5419 53.8753 89.535 53.9285 89.5256 53.9803H87.9025V56.3126C87.8456 56.3216 87.7875 56.3289 87.7281 56.3338C87.6694 56.3387 87.6069 56.3411 87.54 56.3411C87.4794 56.3411 87.4162 56.3387 87.3525 56.3338C87.2894 56.3289 87.2312 56.3216 87.1787 56.3126V51.2154Z" fill="#393536"/>
<path id="path110" d="M92.1625 51.8472H90.8369C90.8275 51.8001 90.8206 51.7476 90.8156 51.691C90.8106 51.6341 90.8081 51.5804 90.8081 51.5279C90.8081 51.4754 90.8106 51.4229 90.8156 51.368C90.8206 51.3138 90.8275 51.263 90.8369 51.2154H94.2112C94.22 51.263 94.2275 51.3126 94.2318 51.3655C94.2368 51.4168 94.2393 51.4688 94.2393 51.5206C94.2393 51.5731 94.2368 51.628 94.2318 51.6873C94.2275 51.7464 94.22 51.8001 94.2112 51.8472H92.8856V56.3126C92.7762 56.327 92.6587 56.3338 92.5306 56.3338C92.3987 56.3338 92.2756 56.327 92.1625 56.3126V51.8472Z" fill="#393536"/>
<path id="path112" d="M95.1113 51.2154C95.1631 51.2064 95.2281 51.1995 95.3063 51.1946C95.3844 51.1898 95.4556 51.1873 95.5219 51.1873C95.5881 51.1873 95.6556 51.1898 95.7244 51.1946C95.7925 51.1995 95.8556 51.2064 95.9119 51.2154L96.7838 55.4617L97.8331 51.2154C97.89 51.2064 97.9525 51.1995 98.0206 51.1946C98.0894 51.1898 98.1544 51.1873 98.2163 51.1873C98.2725 51.1873 98.3363 51.1898 98.4075 51.1946C98.4781 51.1995 98.5394 51.2064 98.5919 51.2154L99.6481 55.5049L100.534 51.2154C100.586 51.2064 100.641 51.1995 100.701 51.1946C100.759 51.1898 100.818 51.1873 100.874 51.1873C100.94 51.1873 101.008 51.1898 101.076 51.1946C101.145 51.1995 101.204 51.2064 101.257 51.2154L100.031 56.3126C99.9738 56.3216 99.9075 56.3289 99.8319 56.3338C99.7563 56.3387 99.6881 56.3411 99.6263 56.3411C99.56 56.3411 99.4869 56.3387 99.4063 56.3338C99.3269 56.3289 99.2531 56.3216 99.1869 56.3126L98.18 52.3214L97.16 56.3126C97.0931 56.3216 97.0219 56.3289 96.9438 56.3338C96.8656 56.3387 96.7938 56.3411 96.7275 56.3411C96.6706 56.3411 96.6056 56.3387 96.5325 56.3338C96.4594 56.3289 96.3944 56.3216 96.3375 56.3126L95.1113 51.2154Z" fill="#393536"/>
<path id="path114" d="M103.213 54.5052H104.766L103.985 51.9039L103.213 54.5052ZM104.957 55.1358H103.021L102.674 56.3126C102.613 56.3216 102.551 56.3289 102.49 56.3338C102.428 56.3387 102.368 56.3411 102.306 56.3411C102.239 56.3411 102.174 56.3387 102.111 56.3338C102.047 56.3289 101.989 56.3216 101.937 56.3126L103.596 51.2154C103.658 51.2064 103.724 51.1995 103.794 51.1946C103.866 51.1898 103.939 51.1873 104.014 51.1873C104.08 51.1873 104.149 51.1898 104.219 51.1946C104.291 51.1995 104.359 51.2064 104.426 51.2154L106.077 56.3126C106.021 56.3216 105.956 56.3289 105.886 56.3338C105.814 56.3387 105.746 56.3411 105.679 56.3411C105.619 56.3411 105.556 56.3387 105.492 56.3338C105.428 56.3289 105.368 56.3216 105.311 56.3126L104.957 55.1358Z" fill="#393536"/>
<path id="path116" d="M107.367 51.2093C107.471 51.1995 107.566 51.1898 107.651 51.1807C107.736 51.1715 107.819 51.1629 107.902 51.1556C107.985 51.1483 108.071 51.1426 108.161 51.138C108.251 51.1336 108.35 51.1311 108.459 51.1311C108.699 51.1311 108.938 51.1551 109.174 51.202C109.411 51.2488 109.621 51.3314 109.806 51.4498C109.99 51.5682 110.139 51.7276 110.256 51.9283C110.371 52.1292 110.429 52.3836 110.429 52.69C110.429 52.8743 110.399 53.0428 110.337 53.1942C110.276 53.345 110.197 53.4793 110.104 53.5977C110.009 53.7161 109.901 53.8187 109.781 53.9058C109.661 53.9937 109.543 54.0652 109.429 54.1219L109.345 54.1646L110.827 56.3126C110.699 56.327 110.554 56.3338 110.394 56.3338C110.266 56.3338 110.138 56.327 110.011 56.3126L108.381 53.9522V53.9241L108.437 53.9102C108.566 53.8765 108.699 53.8321 108.841 53.7747C108.984 53.7178 109.114 53.6434 109.235 53.5518C109.356 53.459 109.456 53.348 109.536 53.2186C109.616 53.0887 109.656 52.9317 109.656 52.7466C109.656 52.4068 109.556 52.1541 109.356 51.9886C109.154 51.8233 108.884 51.741 108.544 51.741C108.464 51.741 108.389 51.7435 108.321 51.7476C108.252 51.7525 108.176 51.7598 108.09 51.7691V56.3126C108.039 56.3167 107.98 56.3216 107.917 56.327C107.853 56.3314 107.792 56.3338 107.736 56.3338C107.679 56.3338 107.617 56.3326 107.552 56.3301C107.485 56.3277 107.424 56.3216 107.367 56.3126V51.2093Z" fill="#393536"/>
<path id="path118" d="M112.116 51.2154H114.916C114.93 51.3106 114.938 51.4144 114.938 51.5279C114.938 51.5804 114.936 51.6341 114.933 51.6909C114.931 51.7476 114.926 51.8001 114.916 51.8472H112.839V53.3072H114.499C114.507 53.3541 114.514 53.4053 114.519 53.459C114.524 53.514 114.526 53.5665 114.526 53.619C114.526 53.6707 114.524 53.7252 114.519 53.782C114.514 53.8387 114.507 53.8912 114.499 53.9388H112.839V55.6819H114.974C114.986 55.7759 114.994 55.8797 114.994 55.9932C114.994 56.0457 114.993 56.1002 114.991 56.1568C114.988 56.2129 114.982 56.2654 114.974 56.3126H112.116V51.2154Z" fill="#393536"/>
<path id="path120" d="M118.659 51.2154H121.324C121.334 51.263 121.341 51.3138 121.346 51.368C121.351 51.4229 121.353 51.4754 121.353 51.5279C121.353 51.5804 121.351 51.6341 121.346 51.691C121.341 51.7476 121.334 51.8001 121.324 51.8472H119.381V53.3419H121.006C121.015 53.3944 121.022 53.4481 121.026 53.5018C121.032 53.5562 121.034 53.6099 121.034 53.6617C121.034 53.7137 121.032 53.7667 121.026 53.8211C121.022 53.8753 121.015 53.9285 121.006 53.9803H119.381V56.3126C119.325 56.3216 119.267 56.3289 119.208 56.3338C119.149 56.3387 119.087 56.3411 119.02 56.3411C118.958 56.3411 118.896 56.3387 118.832 56.3338C118.769 56.3289 118.711 56.3216 118.659 56.3126V51.2154Z" fill="#393536"/>
<path id="path122" d="M124.726 55.7735C124.963 55.7735 125.167 55.7283 125.34 55.6356C125.512 55.544 125.655 55.4105 125.769 55.2352C125.882 55.0601 125.967 54.8502 126.024 54.6041C126.081 54.3587 126.109 54.0804 126.109 53.7679C126.109 53.4603 126.081 53.1832 126.024 52.9354C125.967 52.6863 125.882 52.4764 125.769 52.3043C125.655 52.1309 125.512 51.9991 125.34 51.9063C125.167 51.8148 124.963 51.7691 124.726 51.7691C124.491 51.7691 124.286 51.8148 124.114 51.9063C123.941 51.9991 123.798 52.1309 123.685 52.3043C123.571 52.4764 123.487 52.6863 123.429 52.9354C123.373 53.1832 123.344 53.4603 123.344 53.7679C123.344 54.0804 123.373 54.3587 123.429 54.6041C123.487 54.8502 123.571 55.0601 123.685 55.2352C123.798 55.4105 123.941 55.544 124.114 55.6356C124.286 55.7283 124.491 55.7735 124.726 55.7735ZM124.726 56.3973C124.358 56.3973 124.039 56.3326 123.769 56.2025C123.499 56.0726 123.277 55.8907 123.099 55.657C122.922 55.4227 122.79 55.1448 122.703 54.8238C122.615 54.5027 122.572 54.15 122.572 53.7679C122.572 53.3853 122.615 53.033 122.703 52.712C122.79 52.3897 122.922 52.1126 123.099 51.8782C123.277 51.6451 123.499 51.462 123.769 51.3289C124.039 51.1971 124.358 51.1311 124.726 51.1311C125.095 51.1311 125.414 51.1971 125.683 51.3289C125.952 51.462 126.176 51.6451 126.354 51.8782C126.531 52.1126 126.662 52.3897 126.747 52.712C126.832 53.033 126.874 53.3853 126.874 53.7679C126.874 54.15 126.832 54.5027 126.747 54.8238C126.662 55.1448 126.531 55.4227 126.354 55.657C126.176 55.8907 125.952 56.0726 125.683 56.2025C125.414 56.3326 125.095 56.3973 124.726 56.3973Z" fill="#393536"/>
<path id="path124" d="M128.476 51.2093C128.58 51.1995 128.674 51.1898 128.759 51.1807C128.844 51.1715 128.929 51.1629 129.011 51.1556C129.094 51.1483 129.18 51.1426 129.27 51.138C129.36 51.1336 129.459 51.1311 129.568 51.1311C129.809 51.1311 130.047 51.1551 130.284 51.202C130.52 51.2488 130.731 51.3314 130.914 51.4498C131.098 51.5682 131.249 51.7276 131.365 51.9283C131.481 52.1292 131.538 52.3836 131.538 52.69C131.538 52.8743 131.508 53.0428 131.447 53.1942C131.385 53.345 131.307 53.4793 131.212 53.5977C131.117 53.7161 131.011 53.8187 130.89 53.9058C130.769 53.9937 130.652 54.0652 130.539 54.1219L130.454 54.1646L131.936 56.3126C131.808 56.327 131.664 56.3338 131.503 56.3338C131.376 56.3338 131.247 56.327 131.12 56.3126L129.49 53.9522V53.9241L129.547 53.9102C129.674 53.8765 129.809 53.8321 129.951 53.7747C130.092 53.7178 130.224 53.6434 130.344 53.5518C130.464 53.459 130.566 53.348 130.646 53.2186C130.725 53.0887 130.766 52.9317 130.766 52.7466C130.766 52.4068 130.665 52.1541 130.464 51.9886C130.263 51.8233 129.994 51.741 129.654 51.741C129.572 51.741 129.498 51.7435 129.429 51.7476C129.361 51.7525 129.284 51.7598 129.199 51.7691V56.3126C129.147 56.3167 129.089 56.3216 129.026 56.327C128.962 56.3314 128.903 56.3338 128.844 56.3338C128.788 56.3338 128.726 56.3326 128.661 56.3301C128.594 56.3277 128.533 56.3216 128.476 56.3126V51.2093Z" fill="#393536"/>
<path id="path126" d="M136.16 55.7527C136.226 55.762 136.309 55.7698 136.412 55.7735C136.513 55.7791 136.614 55.7808 136.714 55.7808C136.883 55.7808 137.043 55.7669 137.191 55.7381C137.341 55.71 137.472 55.6612 137.584 55.5928C137.698 55.5245 137.788 55.4329 137.854 55.3165C137.921 55.2005 137.954 55.0533 137.954 54.8738C137.954 54.6993 137.923 54.5511 137.862 54.4307C137.8 54.3099 137.716 54.2134 137.61 54.1402C137.504 54.0665 137.377 54.015 137.23 53.984C137.084 53.9534 136.926 53.9388 136.755 53.9388H136.16V55.7527ZM136.677 53.3419C136.999 53.3419 137.245 53.2728 137.416 53.1331C137.584 52.994 137.669 52.7847 137.669 52.5057C137.669 52.2364 137.579 52.0357 137.397 51.9039C137.215 51.7715 136.967 51.7049 136.657 51.7049C136.562 51.7049 136.471 51.7073 136.383 51.7122C136.296 51.7171 136.222 51.7239 136.16 51.733V53.3419H136.677ZM135.443 51.2154C135.562 51.193 135.728 51.1734 135.941 51.1593C136.153 51.1451 136.368 51.138 136.586 51.138C136.854 51.138 137.1 51.1617 137.322 51.2093C137.545 51.2557 137.735 51.3326 137.893 51.4393C138.052 51.5457 138.174 51.683 138.262 51.8502C138.349 52.0186 138.393 52.2225 138.393 52.4637C138.393 52.6094 138.371 52.7462 138.325 52.8707C138.281 52.9964 138.221 53.1075 138.145 53.2047C138.07 53.3016 137.982 53.3809 137.882 53.4456C137.784 53.5091 137.682 53.5555 137.578 53.5836C137.71 53.5977 137.844 53.6324 137.978 53.6898C138.112 53.7459 138.234 53.8265 138.343 53.931C138.452 54.0352 138.541 54.1658 138.609 54.324C138.678 54.482 138.712 54.6749 138.712 54.9019C138.712 55.1761 138.658 55.4085 138.549 55.6002C138.439 55.7918 138.292 55.9464 138.106 56.0645C137.919 56.1824 137.699 56.2679 137.447 56.3192C137.194 56.3716 136.924 56.3973 136.636 56.3973C136.456 56.3973 136.259 56.3895 136.046 56.3729C135.834 56.3558 135.633 56.3362 135.443 56.3126V51.2154Z" fill="#393536"/>
<path id="path128" d="M140.186 51.2154C140.242 51.2064 140.301 51.1995 140.363 51.1946C140.424 51.1898 140.486 51.1873 140.547 51.1873C140.608 51.1873 140.67 51.1898 140.732 51.1946C140.792 51.1995 140.852 51.2064 140.909 51.2154V56.3126C140.852 56.3216 140.794 56.3289 140.735 56.3338C140.676 56.3387 140.613 56.3411 140.547 56.3411C140.486 56.3411 140.423 56.3387 140.36 56.3338C140.296 56.3289 140.237 56.3216 140.186 56.3126V51.2154Z" fill="#393536"/>
<path id="path130" d="M144.651 55.7735C144.888 55.7735 145.092 55.7283 145.264 55.6356C145.438 55.544 145.58 55.4105 145.694 55.2352C145.807 55.0601 145.892 54.8502 145.949 54.6041C146.005 54.3587 146.034 54.0804 146.034 53.7679C146.034 53.4603 146.005 53.1832 145.949 52.9354C145.892 52.6863 145.807 52.4764 145.694 52.3043C145.58 52.1309 145.438 51.9991 145.264 51.9063C145.092 51.8148 144.888 51.7691 144.651 51.7691C144.416 51.7691 144.211 51.8148 144.038 51.9063C143.866 51.9991 143.723 52.1309 143.61 52.3043C143.496 52.4764 143.411 52.6863 143.354 52.9354C143.298 53.1832 143.269 53.4603 143.269 53.7679C143.269 54.0804 143.298 54.3587 143.354 54.6041C143.411 54.8502 143.496 55.0601 143.61 55.2352C143.723 55.4105 143.866 55.544 144.038 55.6356C144.211 55.7283 144.416 55.7735 144.651 55.7735ZM144.651 56.3973C144.283 56.3973 143.964 56.3326 143.695 56.2025C143.425 56.0726 143.203 55.8907 143.024 55.657C142.848 55.4227 142.715 55.1448 142.628 54.8238C142.539 54.5027 142.497 54.15 142.497 53.7679C142.497 53.3853 142.539 53.033 142.628 52.712C142.715 52.3897 142.848 52.1126 143.024 51.8782C143.203 51.6451 143.425 51.462 143.695 51.3289C143.964 51.1971 144.283 51.1311 144.651 51.1311C145.02 51.1311 145.339 51.1971 145.608 51.3289C145.878 51.462 146.101 51.6451 146.278 51.8782C146.456 52.1126 146.587 52.3897 146.671 52.712C146.757 53.033 146.799 53.3853 146.799 53.7679C146.799 54.15 146.757 54.5027 146.671 54.8238C146.587 55.1448 146.456 55.4227 146.278 55.657C146.101 55.8907 145.878 56.0726 145.608 56.2025C145.339 56.3326 145.02 56.3973 144.651 56.3973Z" fill="#393536"/>
<path id="path132" d="M148.386 51.2154C148.442 51.2064 148.502 51.1995 148.564 51.1946C148.625 51.1898 148.686 51.1873 148.748 51.1873C148.809 51.1873 148.871 51.1898 148.932 51.1946C148.993 51.1995 149.053 51.2064 149.109 51.2154V56.3126C149.053 56.3216 148.995 56.3289 148.935 56.3338C148.876 56.3387 148.814 56.3411 148.748 56.3411C148.686 56.3411 148.624 56.3387 148.561 56.3338C148.496 56.3289 148.438 56.3216 148.386 56.3126V51.2154Z" fill="#393536"/>
<path id="path134" d="M150.888 51.2154C150.94 51.2064 150.996 51.1995 151.055 51.1946C151.114 51.1898 151.17 51.1873 151.223 51.1873C151.274 51.1873 151.328 51.1898 151.387 51.1946C151.447 51.1995 151.503 51.2064 151.555 51.2154L153.774 55.0435V51.2154C153.83 51.2064 153.889 51.1995 153.95 51.1946C154.011 51.1898 154.073 51.1873 154.135 51.1873C154.187 51.1873 154.241 51.1898 154.298 51.1946C154.354 51.1995 154.41 51.2064 154.461 51.2154V56.3126C154.41 56.3216 154.353 56.3289 154.295 56.3338C154.236 56.3387 154.179 56.3411 154.128 56.3411C154.076 56.3411 154.021 56.3387 153.961 56.3338C153.902 56.3289 153.847 56.3216 153.794 56.3126L151.569 52.5057V56.3126C151.517 56.3216 151.461 56.3289 151.403 56.3338C151.343 56.3387 151.285 56.3411 151.229 56.3411C151.167 56.3411 151.106 56.3387 151.048 56.3338C150.989 56.3289 150.936 56.3216 150.888 56.3126V51.2154Z" fill="#393536"/>
<path id="path136" d="M156.241 51.2154H158.906C158.914 51.263 158.923 51.3138 158.927 51.368C158.931 51.4229 158.933 51.4754 158.933 51.5279C158.933 51.5804 158.931 51.6341 158.927 51.691C158.923 51.7476 158.914 51.8001 158.906 51.8472H156.963V53.3419H158.587C158.596 53.3944 158.603 53.4481 158.607 53.5018C158.612 53.5562 158.615 53.6099 158.615 53.6617C158.615 53.7137 158.612 53.7667 158.607 53.8211C158.603 53.8753 158.596 53.9285 158.587 53.9803H156.963V56.3126C156.906 56.3216 156.849 56.3289 156.789 56.3338C156.731 56.3387 156.667 56.3411 156.602 56.3411C156.539 56.3411 156.478 56.3387 156.414 56.3338C156.35 56.3289 156.292 56.3216 156.241 56.3126V51.2154Z" fill="#393536"/>
<path id="path138" d="M162.307 55.7735C162.544 55.7735 162.748 55.7283 162.921 55.6356C163.094 55.544 163.236 55.4105 163.35 55.2352C163.463 55.0601 163.549 54.8502 163.605 54.6041C163.662 54.3587 163.69 54.0804 163.69 53.7679C163.69 53.4603 163.662 53.1832 163.605 52.9354C163.549 52.6863 163.463 52.4764 163.35 52.3043C163.236 52.1309 163.094 51.9991 162.921 51.9063C162.748 51.8148 162.544 51.7691 162.307 51.7691C162.072 51.7691 161.867 51.8148 161.694 51.9063C161.522 51.9991 161.38 52.1309 161.266 52.3043C161.152 52.4764 161.067 52.6863 161.011 52.9354C160.954 53.1832 160.926 53.4603 160.926 53.7679C160.926 54.0804 160.954 54.3587 161.011 54.6041C161.067 54.8502 161.152 55.0601 161.266 55.2352C161.38 55.4105 161.522 55.544 161.694 55.6356C161.867 55.7283 162.072 55.7735 162.307 55.7735ZM162.307 56.3973C161.939 56.3973 161.621 56.3326 161.351 56.2025C161.082 56.0726 160.858 55.8907 160.681 55.657C160.503 55.4227 160.371 55.1448 160.284 54.8238C160.196 54.5027 160.153 54.15 160.153 53.7679C160.153 53.3853 160.196 53.033 160.284 52.712C160.371 52.3897 160.503 52.1126 160.681 51.8782C160.858 51.6451 161.082 51.462 161.351 51.3289C161.621 51.1971 161.939 51.1311 162.307 51.1311C162.676 51.1311 162.996 51.1971 163.264 51.3289C163.534 51.462 163.757 51.6451 163.934 51.8782C164.112 52.1126 164.243 52.3897 164.327 52.712C164.414 53.033 164.455 53.3853 164.455 53.7679C164.455 54.15 164.414 54.5027 164.327 54.8238C164.243 55.1448 164.112 55.4227 163.934 55.657C163.757 55.8907 163.534 56.0726 163.264 56.2025C162.996 56.3326 162.676 56.3973 162.307 56.3973Z" fill="#393536"/>
<path id="path140" d="M166.057 51.2093C166.161 51.1995 166.255 51.1898 166.341 51.1807C166.426 51.1715 166.511 51.1629 166.592 51.1556C166.675 51.1483 166.762 51.1426 166.851 51.138C166.941 51.1336 167.041 51.1311 167.149 51.1311C167.39 51.1311 167.628 51.1551 167.865 51.202C168.101 51.2488 168.311 51.3314 168.496 51.4498C168.68 51.5682 168.83 51.7276 168.946 51.9283C169.062 52.1292 169.12 52.3836 169.12 52.69C169.12 52.8743 169.089 53.0428 169.027 53.1942C168.966 53.345 168.888 53.4793 168.794 53.5977C168.699 53.7161 168.592 53.8187 168.471 53.9058C168.351 53.9937 168.233 54.0652 168.12 54.1219L168.035 54.1646L169.517 56.3126C169.389 56.327 169.245 56.3338 169.084 56.3338C168.958 56.3338 168.829 56.327 168.701 56.3126L167.071 53.9522V53.9241L167.129 53.9102C167.256 53.8765 167.39 53.8321 167.532 53.7747C167.674 53.7178 167.804 53.6434 167.926 53.5518C168.046 53.459 168.147 53.348 168.227 53.2186C168.307 53.0887 168.347 52.9317 168.347 52.7466C168.347 52.4068 168.246 52.1541 168.046 51.9886C167.845 51.8233 167.574 51.741 167.234 51.741C167.154 51.741 167.08 51.7435 167.011 51.7476C166.942 51.7525 166.866 51.7598 166.78 51.7691V56.3126C166.728 56.3167 166.67 56.3216 166.607 56.327C166.543 56.3314 166.483 56.3338 166.426 56.3338C166.369 56.3338 166.308 56.3326 166.242 56.3301C166.175 56.3277 166.115 56.3216 166.057 56.3126V51.2093Z" fill="#393536"/>
<path id="path142" d="M170.947 51.2154C171.004 51.2064 171.069 51.1995 171.142 51.1946C171.216 51.1898 171.285 51.1873 171.352 51.1873C171.418 51.1873 171.49 51.1898 171.568 51.1946C171.646 51.1995 171.711 51.2064 171.762 51.2154L173.081 54.4056L174.406 51.2154C174.454 51.2064 174.513 51.1995 174.584 51.1946C174.655 51.1898 174.722 51.1873 174.791 51.1873C174.851 51.1873 174.92 51.1898 174.996 51.1946C175.071 51.1995 175.135 51.2064 175.186 51.2154L175.428 56.3126C175.37 56.3216 175.313 56.3289 175.254 56.3338C175.194 56.3387 175.135 56.3411 175.074 56.3411C175.011 56.3411 174.951 56.3387 174.893 56.3338C174.833 56.3289 174.778 56.3216 174.726 56.3126L174.563 52.3494L173.316 55.2567C173.221 55.2706 173.124 55.2767 173.024 55.2767C172.934 55.2767 172.845 55.2706 172.756 55.2567L171.55 52.3294L171.387 56.3126C171.335 56.3216 171.281 56.3289 171.224 56.3338C171.168 56.3387 171.113 56.3411 171.061 56.3411C171 56.3411 170.941 56.3387 170.884 56.3338C170.827 56.3289 170.773 56.3216 170.721 56.3126L170.947 51.2154Z" fill="#393536"/>
<path id="path144" d="M177.888 54.5052H179.439L178.66 51.9039L177.888 54.5052ZM179.631 55.1358H177.696L177.348 56.3126C177.287 56.3216 177.226 56.3289 177.164 56.3338C177.103 56.3387 177.041 56.3411 176.98 56.3411C176.913 56.3411 176.849 56.3387 176.785 56.3338C176.721 56.3289 176.664 56.3216 176.611 56.3126L178.269 51.2154C178.331 51.2064 178.398 51.1995 178.468 51.1946C178.539 51.1898 178.612 51.1873 178.688 51.1873C178.754 51.1873 178.823 51.1898 178.894 51.1946C178.964 51.1995 179.034 51.2064 179.099 51.2154L180.751 56.3126C180.694 56.3216 180.63 56.3289 180.559 56.3338C180.489 56.3387 180.42 56.3411 180.354 56.3411C180.292 56.3411 180.229 56.3387 180.166 56.3338C180.103 56.3289 180.042 56.3216 179.985 56.3126L179.631 55.1358Z" fill="#393536"/>
<path id="path146" d="M182.452 51.8472H181.127C181.118 51.8001 181.111 51.7476 181.106 51.691C181.101 51.6341 181.099 51.5804 181.099 51.5279C181.099 51.4754 181.101 51.4229 181.106 51.368C181.111 51.3138 181.118 51.263 181.127 51.2154H184.501C184.511 51.263 184.517 51.3126 184.522 51.3655C184.527 51.4168 184.529 51.4688 184.529 51.5206C184.529 51.5731 184.527 51.628 184.522 51.6873C184.517 51.7464 184.511 51.8001 184.501 51.8472H183.176V56.3126C183.067 56.327 182.949 56.3338 182.821 56.3338C182.689 56.3338 182.566 56.327 182.452 56.3126V51.8472Z" fill="#393536"/>
<path id="path148" d="M185.834 51.2154C185.891 51.2064 185.949 51.1995 186.011 51.1946C186.072 51.1898 186.134 51.1873 186.196 51.1873C186.256 51.1873 186.319 51.1898 186.38 51.1946C186.441 51.1995 186.501 51.2064 186.557 51.2154V56.3126C186.501 56.3216 186.442 56.3289 186.383 56.3338C186.324 56.3387 186.262 56.3411 186.196 56.3411C186.134 56.3411 186.072 56.3387 186.008 56.3338C185.944 56.3289 185.886 56.3216 185.834 56.3126V51.2154Z" fill="#393536"/>
<path id="path150" d="M191.589 55.5684C191.693 55.7711 191.761 55.9676 191.789 56.1568C191.589 56.241 191.386 56.3033 191.178 56.3411C190.971 56.3785 190.746 56.3973 190.506 56.3973C190.137 56.3973 189.804 56.3375 189.509 56.2166C189.214 56.0958 188.965 55.9236 188.761 55.6995C188.558 55.4752 188.402 55.2017 188.294 54.8812C188.185 54.5589 188.131 54.1976 188.131 53.796C188.131 53.3895 188.185 53.0225 188.294 52.6937C188.402 52.3653 188.558 52.0858 188.761 51.8538C188.965 51.6219 189.213 51.4436 189.506 51.3191C189.799 51.1941 190.127 51.1311 190.491 51.1311C190.761 51.1311 190.991 51.1495 191.186 51.1873C191.38 51.2251 191.552 51.2703 191.703 51.3216C191.693 51.4315 191.674 51.5311 191.643 51.6231C191.612 51.7159 191.576 51.8135 191.533 51.9173C191.462 51.8941 191.394 51.8734 191.328 51.8538C191.261 51.8355 191.191 51.8184 191.115 51.8038C191.04 51.7903 190.956 51.7794 190.863 51.772C190.771 51.7654 190.666 51.7623 190.548 51.7623C190.033 51.7623 189.633 51.9368 189.346 52.286C189.061 52.6363 188.917 53.1392 188.917 53.796C188.917 54.1317 188.958 54.4222 189.037 54.6683C189.118 54.9134 189.232 55.1168 189.378 55.2767C189.525 55.4385 189.701 55.5587 189.906 55.6392C190.112 55.7198 190.342 55.7593 190.597 55.7593C190.796 55.7593 190.975 55.743 191.137 55.71C191.298 55.6771 191.448 55.6295 191.589 55.5684Z" fill="#393536"/>
<path id="path152" d="M193.12 55.5399C193.276 55.5965 193.439 55.6465 193.61 55.6893C193.779 55.7308 193.987 55.7527 194.233 55.7527C194.621 55.7527 194.911 55.6734 195.102 55.5154C195.293 55.3568 195.389 55.1424 195.389 54.8738C195.389 54.7413 195.369 54.6285 195.328 54.5333C195.288 54.4393 195.229 54.3575 195.148 54.2891C195.067 54.2195 194.968 54.1573 194.846 54.1011C194.726 54.045 194.585 53.9827 194.425 53.9168L194.021 53.754C193.884 53.6971 193.758 53.6336 193.645 53.5652C193.532 53.4969 193.434 53.4132 193.351 53.3138C193.268 53.2149 193.203 53.1007 193.156 52.9703C193.108 52.8402 193.085 52.6859 193.085 52.5057C193.085 52.076 193.231 51.7391 193.525 51.4961C193.818 51.252 194.229 51.1311 194.758 51.1311C194.984 51.1311 195.2 51.1495 195.403 51.1873C195.606 51.2251 195.786 51.2728 195.942 51.3289C195.918 51.5279 195.866 51.7239 195.786 51.9173C195.658 51.8697 195.51 51.8282 195.343 51.7903C195.175 51.7525 194.984 51.733 194.772 51.733C194.475 51.733 194.245 51.7933 194.084 51.9144C193.924 52.0345 193.843 52.2152 193.843 52.4556C193.843 52.5557 193.864 52.6444 193.904 52.723C193.944 52.7999 193.998 52.8694 194.063 52.9276C194.13 52.9866 194.208 53.0403 194.297 53.0867C194.387 53.1343 194.481 53.1771 194.581 53.2149L194.978 53.3707C195.167 53.4468 195.335 53.525 195.48 53.6085C195.627 53.691 195.753 53.7874 195.856 53.8992C195.961 54.0096 196.04 54.1414 196.094 54.2928C196.148 54.4429 196.175 54.6212 196.175 54.8238C196.175 55.3109 196.008 55.6942 195.673 55.9761C195.338 56.2569 194.867 56.3973 194.262 56.3973C194.115 56.3973 193.983 56.3936 193.865 56.3839C193.746 56.3741 193.637 56.3594 193.535 56.3411C193.434 56.3216 193.334 56.2984 193.241 56.2703C193.148 56.241 193.049 56.2112 192.95 56.1776C192.96 56.0738 192.981 55.9676 193.014 55.859C193.047 55.7503 193.083 55.6436 193.12 55.5399Z" fill="#393536"/>
</g>
</g>
</g>
<defs>
<clipPath id="clip0_519_9557">
<rect width="201.388" height="57.95" fill="white"/>
</clipPath>
</defs>
</svg>
